#!OML:ASF H:\Male1\Project 1\Capture day 1\Session 1\Male1.ASF
:FULLY-SPECIFIED
:DEGREES
306
root 44.583 15.8055 1.91256 181.562 79.0492 170.432
lowerback 13.4821 4.2915 1.98244
upperback 6.79041 6.28393 -3.70009
thorax 0.278459 3.45991 -5.77631
lowerneck 10.718 19.8873 20.5055
upperneck -7.55438 28.1086 -22.4418
head 2.22104 14.6797 -8.69777
rclavicle 5.61567e-014 1.09332e-015
rhumerus -54.887 -8.56339 -72.2227
rradius 32.7165
rwrist -32.356
rhand -30.9054 7.29356
rfingers 7.12502
rthumb -4.19178 -22.6449
lclavicle 5.61567e-014 1.09332e-015
lhumerus -13.7905 25.162 72.4081
lradius 40.4285
lwrist 11.9371
lhand -30.0679 13.5006
lfingers 7.12502
lthumb -3.38299 43.4536
rfemur -14.8649 20.3484 25.0301
rtibia 24.9491
rfoot -26.9884 -33.8841
rtoes -3.63181
lfemur -12.9568 -25.6327 -20.2168
ltibia 19.6869
lfoot -15.7897 17.7741
ltoes -3.36442
307
root 44.6223 15.7847 1.89808 182.095 77.9511 171.18
lowerback 13.372 4.62529 2.48023
upperback 6.62406 6.77532 -3.80174
thorax 0.292273 3.71794 -6.21294
lowerneck 10.9047 20.0013 20.7503
upperneck -6.9754 28.3752 -21.9328
head 2.36074 14.7801 -8.52711
rclavicle -4.91495e-014 4.67144e-014
rhumerus -55.1228 -9.69892 -72.7302
rradius 32.9768
rwrist -33.3122
rhand -30.7151 6.88039
rfingers 7.12502
rthumb -4.00805 -23.0617
lclavicle -4.91495e-014 4.67144e-014
lhumerus -10.6017 23.4107 75.7771
lradius 38.2241
lwrist 11.6101
lhand -30.538 13.1676
lfingers 7.12502
lthumb -3.83698 43.1128
rfemur -14.2189 20.6587 25.1407
rtibia 24.8858
rfoot -28.4336 -34.0815
rtoes -1.99129
lfemur -12.8324 -25.5889 -20.3242
ltibia 19.9725
lfoot -15.7602 16.8126
ltoes -4.0938
308
root 44.6586 15.768 1.88404 182.345 76.8065 171.515
lowerback 13.1787 4.97424 2.82917
upperback 6.42448 7.26399 -3.87108
thorax 0.301729 3.96642 -6.52178
lowerneck 10.9369 20.1102 20.7503
upperneck -6.45755 28.5717 -21.3177
head 2.44059 14.8428 -8.30595
rclavicle -2.18663e-014 1.59028e-015
rhumerus -55.2814 -10.6203 -73.3345
rradius 33.2889
rwrist -33.989
rhand -30.3502 6.67446
rfingers 7.12502
rthumb -3.65563 -23.2739
lclavicle -2.18663e-014 1.59028e-015
lhumerus -7.5985 22.5059 79.3979
lradius 35.9799
lwrist 10.0743
lhand -29.7667 14.1736
lfingers 7.12502
lthumb -3.09216 44.1309
rfemur -13.8028 20.6213 25.1481
rtibia 24.8252
rfoot -28.9425 -34.2782
rtoes -1.71643
lfemur -12.9002 -25.4489 -20.4017
ltibia 20.2287
lfoot -15.7135 15.6857
ltoes -4.61087
309
root 44.6971 15.7513 1.8709 181.833 75.5552 171.155
lowerback 13.0427 5.34909 3.03899
upperback 6.26626 7.77781 -3.95743
thorax 0.318975 4.22786 -6.77396
lowerneck 10.9363 20.1146 20.4915
upperneck -6.27081 28.5542 -20.6243
head 2.33805 14.8065 -8.09852
rclavicle -1.15494e-013 1.55052e-014
rhumerus -55.3426 -11.538 -73.9863
rradius 33.503
rwrist -34.2177
rhand -29.7811 6.72666
rfingers 7.12502
rthumb -3.10602 -23.2305
lclavicle -1.15494e-013 1.55052e-014
lhumerus -5.29465 18.9753 82.5341
lradius 33.8813
lwrist 10.3438
lhand -28.7321 16.1144
lfingers 7.12502
lthumb -2.09302 46.0838
rfemur -13.3336 20.3807 25.0796
rtibia 24.8541
rfoot -30.2283 -34.3742
rtoes -0.37454
lfemur -12.7655 -25.4185 -20.7198
ltibia 20.3081
lfoot -15.5563 14.6898
ltoes -4.56781
310
root 44.7368 15.7359 1.86336 182.442 74.321 172.033
lowerback 12.9985 5.72336 3.45601
upperback 6.09724 8.31272 -3.93247
thorax 0.297099 4.49916 -7.03427
lowerneck 10.8726 20.1141 20.1961
upperneck -6.07638 28.5188 -19.9132
head 2.2376 14.7592 -7.87952
rclavicle -6.2319e-014 1.82882e-014
rhumerus -55.2462 -12.2772 -74.7779
rradius 33.652
rwrist -34.0127
rhand -29.1858 6.82732
rfingers 7.12502
rthumb -2.5311 -23.1374
lclavicle -6.2319e-014 1.82882e-014
lhumerus -3.18631 16.7798 85.7341
lradius 31.601
lwrist 8.78975
lhand -26.2294 17.4852
lfingers 7.12502
lthumb 0.324173 47.4647
rfemur -12.7829 20.4031 25.4683
rtibia 24.9215
rfoot -31.0012 -35.4754
rtoes -2.01156
lfemur -12.4727 -25.4654 -20.7332
ltibia 20.2613
lfoot -15.312 13.8957
ltoes -4.285
311
root 44.7766 15.7221 1.85367 181.321 73.1708 171.107
lowerback 12.877 5.97953 3.17875
upperback 5.922 8.61238 -4.03375
thorax 0.195309 4.63626 -7.01314
lowerneck 10.9761 20.2685 20.1419
upperneck -5.84648 28.7524 -19.4371
head 2.2449 14.8575 -7.7133
rclavicle 0 1.55052e-014
rhumerus -54.9175 -12.4538 -75.8509
rradius 33.9182
rwrist -33.605
rhand -28.8495 6.97494
rfingers 7.12502
rthumb -2.20637 -22.9934
lclavicle 0 1.55052e-014
lhumerus -2.00536 15.1787 88.4923
lradius 29.9679
lwrist 6.48388
lhand -24.1408 14.2848
lfingers 7.12502
lthumb 2.34142 44.2517
rfemur -12.2606 20.3214 25.3373
rtibia 24.9996
rfoot -33.457 -34.9424
rtoes 3.76615
lfemur -12.0774 -25.8105 -21.3382
ltibia 20.149
lfoot -15.0749 13.5702
ltoes -5.16178
312
root 44.8146 15.7082 1.84332 180.155 72.0244 170.103
lowerback 12.72 6.12312 2.77297
upperback 5.74482 8.74823 -4.159
thorax 0.0698278 4.68842 -6.92782
lowerneck 11.3204 20.4242 20.4101
upperneck -5.793 29.0551 -19.3852
head 2.29162 15.0133 -7.70929
rclavicle -1.45411e-013 4.79071e-014
rhumerus -54.4895 -12.4646 -76.9192
rradius 34.4239
rwrist -33.3776
rhand -28.5723 7.08528
rfingers 7.12502
rthumb -1.93865 -22.8857
lclavicle -1.45411e-013 4.79071e-014
lhumerus -1.6192 13.6725 90.9189
lradius 29.1521
lwrist 3.63026
lhand -23.9421 9.49199
lfingers 7.12502
lthumb 2.53327 39.4567
rfemur -11.7127 20.0062 25.1398
rtibia 24.9968
rfoot -32.7093 -36.5463
rtoes -1.05148
lfemur -11.7001 -26.2867 -22.0359
ltibia 20.0878
lfoot -14.9193 13.516
ltoes -6.41138
313
root 44.849 15.6993 1.83797 179.941 70.8129 169.87
lowerback 12.4597 6.23564 2.60576
upperback 5.52255 8.86288 -4.24889
thorax -0.0206016 4.73196 -6.92332
lowerneck 11.6711 20.4765 20.807
upperneck -5.90107 29.2283 -19.5712
head 2.32483 15.1146 -7.80767
rclavicle -1.05356e-014 3.27995e-014
rhumerus -54.0306 -12.6436 -77.8319
rradius 35.2041
rwrist -33.7238
rhand -28.1818 7.17502
rfingers 7.12502
rthumb -1.56152 -22.799
lclavicle -1.05356e-014 3.27995e-014
lhumerus -1.55209 11.5293 93.1321
lradius 28.641
lwrist 0.651142
lhand -24.0468 5.21853
lfingers 7.12502
lthumb 2.43217 35.1844
rfemur -11.4016 19.5263 25.086
rtibia 24.9499
rfoot -33.1317 -37.0315
rtoes -1.47932
lfemur -11.6735 -26.4713 -22.3535
ltibia 20.0682
lfoot -14.8212 13.194
ltoes -7.20736
314
root 44.8936 15.6976 1.82181 180.515 69.7486 170.419
lowerback 12.0842 6.38524 2.90534
upperback 5.30233 9.07742 -4.35181
thorax 0.0438003 4.84029 -7.17846
lowerneck 11.7401 20.5381 20.8682
upperneck -5.94751 29.3274 -19.397
head 2.29696 15.1581 -7.76301
rclavicle 1.03368e-014 -2.10712e-014
rhumerus -53.5894 -12.9942 -78.6967
rradius 36.208
rwrist -34.5093
rhand -27.8666 7.54344
rfingers 7.12502
rthumb -1.25711 -22.4326
lclavicle 1.03368e-014 -2.10712e-014
lhumerus -1.70812 9.01918 95.1262
lradius 28.4549
lwrist -2.61082
lhand -24.1568 3.14052
lfingers 7.12502
lthumb 2.32594 33.1076
rfemur -11.0833 19.0951 25.2407
rtibia 24.833
rfoot -33.7779 -37.0576
rtoes -0.514001
lfemur -11.6722 -26.4874 -22.371
ltibia 20.1394
lfoot -14.9546 12.6528
ltoes -7.26126
315
root 44.8984 15.7095 1.82043 181.783 69.2512 171.783
lowerback 12.5247 6.6492 3.56771
upperback 4.91359 9.47971 -4.45326
thorax -0.414531 5.0258 -7.77985
lowerneck 11.6074 20.6523 20.5154
upperneck -5.98776 29.4079 -18.9442
head 2.19234 15.1797 -7.59516
rclavicle 1.10325e-014 3.79679e-014
rhumerus -53.1791 -13.2921 -79.5644
rradius 37.4439
rwrist -35.3643
rhand -27.649 7.92576
rfingers 7.12502
rthumb -1.04692 -22.0514
lclavicle 1.10325e-014 3.79679e-014
lhumerus -2.42012 4.50725 96.4501
lradius 29.1046
lwrist -3.79457
lhand -24.0213 2.26715
lfingers 7.12502
lthumb 2.45683 32.2327
rfemur -10.9359 19.9101 25.7235
rtibia 24.6575
rfoot -34.2877 -37.6076
rtoes 0.828452
lfemur -11.869 -26.267 -21.8383
ltibia 20.3185
lfoot -14.7795 12.1486
ltoes -7.26194
316
root 44.9192 15.7205 1.80822 182.164 68.5165 172.256
lowerback 12.578 6.77796 3.93192
upperback 4.69894 9.68312 -4.5669
thorax -0.55397 5.12325 -8.14353
lowerneck 11.6801 20.654 20.6409
upperneck -6.10609 29.4358 -19.1663
head 2.20664 15.2032 -7.67188
rclavicle 6.85807e-014 -3.81667e-014
rhumerus -52.7769 -13.2709 -80.479
rradius 39.0274
rwrist -36.0409
rhand -27.5613 7.73433
rfingers 7.12502
rthumb -0.962247 -22.2432
lclavicle 6.85807e-014 -3.81667e-014
lhumerus -3.5907 0.164321 97.5101
lradius 30.7918
lwrist -4.70599
lhand -22.9669 1.02386
lfingers 7.12502
lthumb 3.47506 30.9753
rfemur -10.5989 20.2566 25.8711
rtibia 24.5099
rfoot -34.6015 -37.924
rtoes 1.13642
lfemur -11.9242 -26.2692 -21.7438
ltibia 20.5228
lfoot -14.3966 11.5941
ltoes -7.80136
317
root 44.9549 15.7289 1.79033 182.474 67.6783 172.641
lowerback 12.2508 6.8193 4.12622
upperback 4.59892 9.74892 -4.59209
thorax -0.435104 5.15928 -8.23943
lowerneck 11.8768 20.6874 20.7362
upperneck -6.45003 29.5011 -19.5106
head 2.15939 15.2582 -7.79996
rclavicle -2.54444e-013 5.9039e-014
rhumerus -52.3335 -12.8368 -81.4563
rradius 40.7855
rwrist -36.6179
rhand -27.6965 7.4942
rfingers 7.12502
rthumb -1.0928 -22.4827
lclavicle -2.54444e-013 5.9039e-014
lhumerus -4.60151 -3.95197 98.2729
lradius 32.3428
lwrist -5.93347
lhand -21.3915 -1.16426
lfingers 7.12502
lthumb 4.99637 28.7568
rfemur -10.1888 20.1213 25.9888
rtibia 24.398
rfoot -34.3847 -38.0916
rtoes 0.130859
lfemur -11.9308 -26.314 -21.7311
ltibia 20.7441
lfoot -14.1614 10.9517
ltoes -7.67793
318
root 44.9784 15.7371 1.77561 182.581 67.1987 172.96
lowerback 12.2045 6.90938 4.21176
upperback 4.50499 9.87229 -4.58143
thorax -0.475593 5.21616 -8.2855
lowerneck 11.7617 20.9188 20.8812
upperneck -6.15156 29.8449 -19.5832
head 2.36101 15.4216 -7.73396
rclavicle -1.45113e-014 1.17283e-014
rhumerus -51.86 -12.1443 -82.3419
rradius 42.4995
rwrist -37.2541
rhand -27.7151 7.77255
rfingers 7.12502
rthumb -1.11077 -22.2043
lclavicle -1.45113e-014 1.17283e-014
lhumerus -5.31158 -7.51159 98.689
lradius 33.5028
lwrist -8.02952
lhand -19.8383 -4.27756
lfingers 7.12502
lthumb 6.49591 25.6028
rfemur -9.75383 19.9467 26.1116
rtibia 24.3655
rfoot -33.9405 -38.0106
rtoes -0.924781
lfemur -11.7556 -26.2839 -21.816
ltibia 20.921
lfoot -13.9835 10.6457
ltoes -7.45105
319
root 45.0002 15.7466 1.76836 182.528 66.7434 173.079
lowerback 12.1587 7.01159 4.17868
upperback 4.41435 9.99905 -4.58916
thorax -0.529367 5.27323 -8.28634
lowerneck 11.6733 21.0599 20.7128
upperneck -6.09236 30.0045 -19.4307
head 2.37025 15.4926 -7.64033
rclavicle 1.4392e-013 -7.2954e-014
rhumerus -51.4127 -11.6644 -82.9668
rradius 44.2373
rwrist -37.747
rhand -27.3082 8.00429
rfingers 7.12502
rthumb -0.717795 -21.9742
lclavicle 1.4392e-013 -7.2954e-014
lhumerus -6.09053 -12.0905 98.4387
lradius 35.2513
lwrist -9.26656
lhand -18.7648 -6.70423
lfingers 7.12502
lthumb 7.53213 23.1417
rfemur -9.4134 19.8296 26.1587
rtibia 24.3622
rfoot -33.959 -37.8122
rtoes -0.660413
lfemur -11.642 -26.3319 -21.9585
ltibia 21.1036
lfoot -13.7523 10.5626
ltoes -7.73885
320
root 45.0233 15.7563 1.76068 182.42 66.4221 173.096
lowerback 12.0422 7.14824 4.08095
upperback 4.33148 10.163 -4.60723
thorax -0.540058 5.35015 -8.25338
lowerneck 11.4825 21.1389 20.3332
upperneck -6.0485 30.0346 -19.1297
head 2.3107 15.4929 -7.50663
rclavicle 2.61402e-014 -2.24627e-014
rhumerus -50.9624 -11.2763 -83.4675
rradius 45.9604
rwrist -38.1067
rhand -26.8532 8.09841
rfingers 7.12502
rthumb -0.278302 -21.8811
lclavicle 2.61402e-014 -2.24627e-014
lhumerus -6.83197 -15.9034 98.0845
lradius 37.0294
lwrist -10.7139
lhand -18.0865 -7.96722
lfingers 7.12502
lthumb 8.1868 21.8542
rfemur -9.19957 19.4703 26.1415
rtibia 24.4146
rfoot -33.4649 -37.5439
rtoes -0.699732
lfemur -11.5081 -26.5052 -22.1327
ltibia 21.2201
lfoot -13.5678 10.6705
ltoes -7.58007
